#!OML:ASF E:\VariousWalksJay\Project 1\Capture day 1\Session 1\Actor2.ASF
:FULLY-SPECIFIED
:DEGREES
642
root 6.13055 15.9696 7.82602 18.881 -42.3146 -5.59431
lowerback 28.5934 -4.56371 6.08247
upperback 16.0222 -5.16726 -1.74938
thorax 1.78768 -2.39283 -4.02334
lowerneck 0.707479 3.62448 2.43452
upperneck -20.9658 4.86509 -0.853016
head -6.3954 2.14307 -0.94218
rclavicle 1.43125e-014 -4.53229e-014
rhumerus -35.3573 25.5141 -88.7657
rradius 83.848
rwrist 4.94616
rhand -44.7794 0.837691
rfingers 7.12502
rthumb -17.5714 -28.3883
lclavicle 1.43125e-014 -4.53229e-014
lhumerus 40.3924 -36.432 43.8433
lradius 80.6202
lwrist 45.0033
lhand -29.5475 4.62136
lfingers 7.12502
lthumb -2.8805 34.5817
rfemur -53.5728 8.08147 29.9203
rtibia 58.3079
rfoot -20.6589 -23.0315
rtoes 12.559
lfemur -62.0546 17.0985 -15.6246
ltibia 123.834
lfoot -14.6857 -8.16304
ltoes -23.9022
643
root 6.10572 15.9183 7.844 18.1504 -42.1614 -5.36734
lowerback 29.4546 -4.51414 5.91245
upperback 16.1976 -5.10898 -1.75772
thorax 1.63106 -2.38172 -3.91512
lowerneck 0.693463 3.52662 2.38754
upperneck -21.2217 4.74076 -0.759527
head -6.48096 2.07202 -0.901167
rclavicle -2.8625e-014 -3.97569e-015
rhumerus -34.3283 25.5935 -88.4655
rradius 84.9901
rwrist 4.7587
rhand -44.181 0.151841
rfingers 7.12502
rthumb -16.9955 -29.1246
lclavicle -2.8625e-014 -3.97569e-015
lhumerus 41.89 -35.2003 42.6378
lradius 80.4499
lwrist 45.5998
lhand -29.4816 4.94363
lfingers 7.12502
lthumb -2.81679 34.9048
rfemur -53.358 8.18365 29.8269
rtibia 59.3146
rfoot -21.2995 -23.5743
rtoes 12.4551
lfemur -64.511 17.4427 -15.6599
ltibia 125.169
lfoot -15.1053 -8.28592
ltoes -23.8155
644
root 6.08105 15.8644 7.86233 17.4165 -42.037 -5.13478
lowerback 30.3308 -4.45238 5.72283
upperback 16.3677 -5.04289 -1.7664
thorax 1.46881 -2.36827 -3.79894
lowerneck 0.674371 3.4338 2.34065
upperneck -21.4888 4.62406 -0.662069
head -6.5693 2.00399 -0.859022
rclavicle 2.70347e-014 -1.90833e-014
rhumerus -33.26 25.7063 -88.1365
rradius 86.1645
rwrist 4.54459
rhand -43.5743 -0.538272
rfingers 7.12502
rthumb -16.4113 -29.864
lclavicle 2.70347e-014 -1.90833e-014
lhumerus 43.3225 -33.9065 41.5232
lradius 80.2634
lwrist 46.1637
lhand -29.4212 5.26237
lfingers 7.12502
lthumb -2.75853 35.2243
rfemur -53.1491 8.28876 29.7335
rtibia 60.3418
rfoot -21.9533 -24.0842
rtoes 12.3137
lfemur -66.9988 17.6993 -15.7837
ltibia 126.275
lfoot -15.4689 -8.33049
ltoes -23.7072
645
root 6.05624 15.808 7.8811 16.6793 -41.9338 -4.89767
lowerback 31.596 -4.41478 5.54074
upperback 16.3922 -4.95308 -1.89652
thorax 1.07179 -2.35046 -3.54804
lowerneck 0.646475 3.34707 2.29588
upperneck -21.7581 4.51636 -0.561451
head -6.65682 1.93974 -0.816225
rclavicle 8.11041e-014 4.92986e-014
rhumerus -32.149 25.8554 -87.7745
rradius 87.3619
rwrist 4.30806
rhand -42.9702 -1.23359
rfingers 7.12502
rthumb -15.8297 -30.6064
lclavicle 8.11041e-014 4.92986e-014
lhumerus 44.69 -32.558 40.4971
lradius 80.0594
lwrist 46.7011
lhand -29.3697 5.58263
lfingers 7.12502
lthumb -2.70879 35.5452
rfemur -52.9443 8.39436 29.6424
rtibia 61.3881
rfoot -22.6198 -24.5634
rtoes 12.1431
lfemur -69.5014 17.8423 -15.9841
ltibia 127.15
lfoot -15.7771 -8.28973
ltoes -23.5728
646
root 6.0311 15.749 7.90041 15.9404 -41.847 -4.65796
lowerback 32.5325 -4.33726 5.31741
upperback 16.5237 -4.88018 -1.90176
thorax 0.891856 -2.33585 -3.4107
lowerneck 0.607308 3.26732 2.25587
upperneck -22.0216 4.41865 -0.459949
head -6.74041 1.87991 -0.773877
rclavicle -3.4191e-014 -2.54444e-014
rhumerus -30.9903 26.0421 -87.3755
rradius 88.5707
rwrist 4.05483
rhand -42.3785 -1.93478
rfingers 7.12502
rthumb -15.2598 -31.3519
lclavicle -3.4191e-014 -2.54444e-014
lhumerus 45.9931 -31.162 39.5545
lradius 79.838
lwrist 47.2213
lhand -29.3292 5.90705
lfingers 7.12502
lthumb -2.66968 35.8701
rfemur -52.7428 8.49947 29.5562
rtibia 62.4514
rfoot -23.2956 -25.0156
rtoes 11.9515
lfemur -71.9997 17.8542 -16.2445
ltibia 127.795
lfoot -16.032 -8.16515
ltoes -23.4176
647
root 6.00551 15.6876 7.92043 15.2005 -41.7728 -4.41689
lowerback 33.4801 -4.25432 5.08207
upperback 16.6467 -4.80802 -1.90491
thorax 0.707829 -2.32242 -3.26642
lowerneck 0.55709 3.19515 2.22312
upperneck -22.2743 4.33154 -0.360059
head -6.81834 1.82491 -0.733228
rclavicle 1.00187e-013 -6.95746e-014
rhumerus -29.7784 26.2644 -86.9365
rradius 89.7772
rwrist 3.78977
rhand -41.8038 -2.64173
rfingers 7.12502
rthumb -14.7062 -32.1001
lclavicle 1.00187e-013 -6.95746e-014
lhumerus 47.2337 -29.7258 38.6883
lradius 79.5995
lwrist 47.7338
lhand -29.3003 6.23559
lfingers 7.12502
lthumb -2.64172 36.199
rfemur -52.5435 8.60242 29.4775
rtibia 63.5299
rfoot -23.9759 -25.4458
rtoes 11.7463
lfemur -74.472 17.7245 -16.5449
ltibia 128.21
lfoot -16.2363 -7.96641
ltoes -23.2512
648
root 5.9794 15.6237 7.94136 14.4606 -41.71 -4.17435
lowerback 34.4338 -4.16808 4.83793
upperback 16.7617 -4.73907 -1.90806
thorax 0.521485 -2.31101 -3.11865
lowerneck 0.498543 3.13096 2.2002
upperneck -22.5144 4.25517 -0.265411
head -6.89036 1.77497 -0.695981
rclavicle -2.14687e-014 2.10712e-014
rhumerus -28.507 26.5195 -86.4554
rradius 90.9675
rwrist 3.51687
rhand -41.2479 -3.35472
rfingers 7.12502
rthumb -14.1705 -32.8514
lclavicle -2.14687e-014 2.10712e-014
lhumerus 48.4132 -28.2556 37.8913
lradius 79.3441
lwrist 48.2445
lhand -29.2809 6.56638
lfingers 7.12502
lthumb -2.62297 36.53
rfemur -52.3464 8.70154 29.4073
rtibia 64.6217
rfoot -24.6559 -25.8579
rtoes 11.5341
lfemur -76.8948 17.4519 -16.8659
ltibia 128.398
lfoot -16.396 -7.70356
ltoes -23.0926
649
root 5.95284 15.5575 7.9634 13.7223 -41.6593 -3.92923
lowerback 35.3864 -4.08047 4.58787
upperback 16.8688 -4.67562 -1.91392
thorax 0.335181 -2.30231 -2.97134
lowerneck 0.436716 3.07508 2.18721
upperneck -22.7432 4.18978 -0.178524
head -6.95766 1.73038 -0.663153
rclavicle -1.11319e-014 3.97569e-015
rhumerus -27.1706 26.804 -85.9308
rradius 92.128
rwrist 3.23684
rhand -40.7088 -4.07212
rfingers 7.12502
rthumb -13.651 -33.6045
lclavicle -1.11319e-014 3.97569e-015
lhumerus 49.5329 -26.7569 37.1577
lradius 79.0707
lwrist 48.7547
lhand -29.2664 6.89718
lfingers 7.12502
lthumb -2.60896 36.861
rfemur -52.1538 8.79495 29.3453
rtibia 65.7257
rfoot -25.331 -26.2552
rtoes 11.3168
lfemur -79.2472 17.045 -17.1895
ltibia 128.361
lfoot -16.5172 -7.3899
ltoes -22.9534
650
root 5.92593 15.4889 7.98677 12.9889 -41.6225 -3.68015
lowerback 36.3283 -3.99285 4.33424
upperback 16.9686 -4.61934 -1.92521
thorax 0.152159 -2.29674 -2.82842
lowerneck 0.377937 3.02745 2.18396
upperneck -22.964 4.13483 -0.102678
head -7.02243 1.69111 -0.635954
rclavicle -2.3059e-014 -2.78299e-014
rhumerus -25.7644 27.114 -85.3619
rradius 93.247
rwrist 2.94626
rhand -40.1821 -4.79575
rfingers 7.12502
rthumb -13.1433 -34.3615
lclavicle -2.3059e-014 -2.78299e-014
lhumerus 50.5939 -25.235 36.4846
lradius 78.7764
lwrist 49.2583
lhand -29.2502 7.22502
lfingers 7.12502
lthumb -2.59334 37.189
rfemur -51.9702 8.88075 29.2902
rtibia 66.8412
rfoot -25.9979 -26.6384
rtoes 11.094
lfemur -81.5112 16.5201 -17.501
ltibia 128.104
lfoot -16.6084 -7.03304
ltoes -22.8524
651
root 5.89878 15.418 8.01166 12.2641 -41.6015 -3.42596
lowerback 37.2495 -3.90648 4.07969
upperback 17.0622 -4.57154 -1.9444
thorax -0.0239485 -2.29454 -2.69371
lowerneck 0.328175 2.98779 2.18916
upperneck -23.181 4.08966 -0.040058
head -7.08704 1.65703 -0.615032
rclavicle -3.81667e-014 5.40694e-014
rhumerus -24.285 27.4451 -84.748
rradius 94.3154
rwrist 2.63819
rhand -39.6618 -5.52756
rfingers 7.12502
rthumb -12.6418 -35.125
lclavicle -3.81667e-014 5.40694e-014
lhumerus 51.5987 -23.6948 35.8702
lradius 78.4566
lwrist 49.7461
lhand -29.2234 7.54768
lfingers 7.12502
lthumb -2.56743 37.512
rfemur -51.7996 8.95645 29.2404
rtibia 67.9673
rfoot -26.6561 -27.006
rtoes 10.8636
lfemur -83.6707 15.8986 -17.7882
ltibia 127.632
lfoot -16.6771 -6.64051
ltoes -22.7902
652
root 5.87148 15.3449 8.03822 11.5518 -41.5965 -3.16625
lowerback 38.141 -3.82288 3.8264
upperback 17.1506 -4.53363 -1.97245
thorax -0.189719 -2.29615 -2.5691
lowerneck 0.291454 2.95596 2.19913
upperneck -23.3969 4.05378 0.00855281
head -7.15318 1.62826 -0.600139
rclavicle -3.10104e-014 3.33958e-014
rhumerus -22.7308 27.7944 -84.0881
rradius 95.3269
rwrist 2.30117
rhand -39.1435 -6.27214
rfingers 7.12502
rthumb -12.142 -35.8998
lclavicle -3.10104e-014 3.33958e-014
lhumerus 52.5491 -22.1409 35.3156
lradius 78.1049
lwrist 50.2056
lhand -29.176 7.86338
lfingers 7.12502
lthumb -2.5217 37.8282
rfemur -51.6455 9.01881 29.1943
rtibia 69.1021
rfoot -27.3074 -27.3543
rtoes 10.6228
lfemur -85.7111 15.2036 -18.0411
ltibia 126.948
lfoot -16.7312 -6.21571
ltoes -22.7622
